<?xml version="1.0" encoding="utf-8"?>
<svg version="1.1" xmlns="http://www.w3.org/2000/svg" xmlns:xlink="http://www.w3.org/1999/xlink" x="0px" y="0px"
	 viewBox="0 0 24.2 14.2" xml:space="preserve">
<path d="M10,7.2C8.2,5.4,3.4,0.6,3.4,0.6c-0.8-0.8-2-0.8-2.8,0C0.2,1,0,1.5,0,2s0.2,1,0.6,1.4l10,10c0.1,0.1,0.2,0.2,0.3,0.3
	c0,0,0.1,0.1,0.2,0.1c0.1,0,0.1,0.1,0.2,0.1c0.1,0,0.1,0,0.2,0.1c0.1,0,0.1,0,0.2,0.1c0.3,0.1,0.5,0.1,0.8,0c0.1,0,0.1,0,0.2-0.1
	c0.1,0,0.1,0,0.2-0.1c0.1,0,0.1-0.1,0.2-0.1c0.1,0,0.1-0.1,0.2-0.1c0.1-0.1,0.2-0.2,0.3-0.3l10-10c0.8-0.8,0.8-2,0-2.8s-2-0.8-2.8,0
	c0,0-4.8,4.8-6.6,6.6S11.8,9,10,7.2z" fill="#ffffff"/>
</svg>
