<?xml version="1.0" encoding="utf-8"?>
<svg version="1.1" xmlns="http://www.w3.org/2000/svg" xmlns:xlink="http://www.w3.org/1999/xlink" x="0px" y="0px"
	 viewBox="0 0 35.3 25.3" xml:space="preserve">
<style type="text/css">
	.st0{stroke-width:1.44;stroke-linecap:round;stroke-linejoin:round;stroke-miterlimit:22.9256;}
</style>
<g transform="translate(0,-952.36218)">
	<path class="st0" d="M4.2,953.1c-1.9,0-3.5,1.6-3.5,3.5v16.9c0,1.9,1.6,3.5,3.5,3.5h27c1.9,0,3.5-1.6,3.5-3.5v-16.9
		c0-1.9-1.6-3.5-3.5-3.5H4.2z M29.4,957.7c-0.3,0-0.6,0.1-0.8,0.3l-10.2,9.4c-0.5,0.5-1.1,0.5-1.6,0L6.7,958 M30.2,970.3
		C30.2,970.3,30.2,970.3,30.2,970.3l-5.9-5.1 M11,965.2l-5.9,5.1" fill="none" stroke="#41939d"/>
</g>
</svg>
