<?xml version="1.0" encoding="utf-8"?>
<svg version="1.1" xmlns="http://www.w3.org/2000/svg" xmlns:xlink="http://www.w3.org/1999/xlink" x="0px" y="0px"
	 viewBox="0 0 38.7 31.8" xml:space="preserve">
<style type="text/css">
	.st0{stroke-width:1.44;stroke-linecap:round;stroke-linejoin:round;stroke-miterlimit:22.9256;}
</style>
<g transform="translate(0,-952.36218)">
	<path class="st0" d="M38,967.5l-6.8-5.3V954c0-0.5-0.4-1-1-1h-3.8c-0.5,0-1,0.4-1,1v3.7l-5.6-4.4c-0.2-0.1-0.4-0.2-0.6-0.2l0,0
		c-0.2,0-0.4,0.1-0.6,0.2L0.7,967.5 M5.6,967.4v15.2c0,0.5,0.4,1,1,1h8.6c0.5,0,1-0.4,1-1v-5.2c0-1.9,1.5-3.3,3.3-3.3
		c1.9,0,3.3,1.5,3.3,3.3v5.2c0,0.5,0.4,1,1,1h8.6c0.5,0,1-0.4,1-1v-15.2" fill="none" stroke="#41939d"/>
</g>
</svg>
