<?xml version="1.0" encoding="utf-8"?>
<svg version="1.1" xmlns="http://www.w3.org/2000/svg" xmlns:xlink="http://www.w3.org/1999/xlink" x="0px" y="0px"
	 viewBox="0 0 31.8 31.8" xml:space="preserve">
<style type="text/css">
	.st0{stroke-width:1.44;stroke-linecap:round;stroke-linejoin:round;stroke-miterlimit:22.9256;}
</style>
<g>
	<g>
		<path class="st0" d="M18.6,21.6c-0.3-0.2-0.7-0.2-1,0.1l-0.7,0.7c-0.9-0.3-3-1.2-4.6-2.9c-1.6-1.6-2.6-3.8-2.9-4.6l0.7-0.7
			c0.3-0.3,0.3-0.7,0.1-1L5.9,6.8C5.8,6.6,5.6,6.5,5.4,6.4c-0.2,0-0.5,0.1-0.6,0.2L2.1,9.3c-3,3-0.9,9.9,4.8,15.6
			c3.8,3.8,8.4,6.2,11.9,6.2c1.5,0,2.8-0.5,3.7-1.4l2.7-2.7c0.2-0.2,0.2-0.4,0.2-0.6c0-0.2-0.1-0.4-0.3-0.6L18.6,21.6z" fill="none" stroke="#41939d"/>
		<path class="st0" d="M25,12.1c0-2.9-2.4-5.3-5.3-5.3" fill="none" stroke="#41939d"/>
		<path class="st0" d="M31.1,12.1c0-6.3-5.1-11.4-11.4-11.4" fill="none" stroke="#41939d"/>
	</g>
</g>
</svg>
