<svg id="FILES" xmlns="http://www.w3.org/2000/svg" viewBox="0 0 89.96 113.29"><defs><style>.cls-1{fill:#d9dee2;}.cls-2{fill:#f0f2f4;}.cls-3{fill:#2b5899;}.cls-4{fill:#f1f2f2;}.cls-5{opacity:0.54;}</style></defs><title>Icons_ficheiros_DOC</title><g id="DOC"><rect class="cls-1" x="5.42" width="84.28" height="113.29"/><rect class="cls-2" x="9.86" width="80.11" height="113.29"/><rect class="cls-3" x="121.84" y="0.24" width="33.1" height="56.85" transform="translate(57.09 -109.73) rotate(90)"/><path class="cls-4" d="M119.06,20.92H124a8.16,8.16,0,0,1,2.51.36,5.38,5.38,0,0,1,1.86,1,5.23,5.23,0,0,1,1.24,1.56,7.49,7.49,0,0,1,.71,2,12.31,12.31,0,0,1,.22,2.43,12.71,12.71,0,0,1-.21,2.4,7.5,7.5,0,0,1-.7,2,5,5,0,0,1-3.1,2.6,8.17,8.17,0,0,1-2.53.36h-4.95V20.92Zm2.23,1.92V33.78h2.52a4,4,0,0,0,3.33-1.35,6.45,6.45,0,0,0,1.09-4.1,9.68,9.68,0,0,0-.24-2.26,5,5,0,0,0-.75-1.72,3.26,3.26,0,0,0-1.37-1.12,5,5,0,0,0-2.06-.38h-2.52Z" transform="translate(-109.96 0)"/><path class="cls-4" d="M132.57,29.42V27.34a7,7,0,0,1,1.65-4.92,5.72,5.72,0,0,1,4.44-1.8,5.66,5.66,0,0,1,4.42,1.79,7.07,7.07,0,0,1,1.62,4.93v2.08a6.79,6.79,0,0,1-1.63,4.84A5.81,5.81,0,0,1,138.61,36a5.75,5.75,0,0,1-4.42-1.74A6.83,6.83,0,0,1,132.57,29.42Zm2.25-2.1v2.1a5.06,5.06,0,0,0,1,3.46,3.82,3.82,0,0,0,5.52,0,5.06,5.06,0,0,0,1-3.46v-2.1a5.28,5.28,0,0,0-1.06-3.52,3.67,3.67,0,0,0-5.5,0A5.26,5.26,0,0,0,134.82,27.32Z" transform="translate(-109.96 0)"/><path class="cls-4" d="M149.16,27.42v1.85a5.5,5.5,0,0,0,1,3.59A3.38,3.38,0,0,0,152.9,34a3.35,3.35,0,0,0,2.46-.87,2.88,2.88,0,0,0,.88-2.13h2.18v0.12a4.57,4.57,0,0,1-.21,1.37,4.51,4.51,0,0,1-.67,1.3,5.06,5.06,0,0,1-1.1,1.1,5.2,5.2,0,0,1-1.57.76,6.85,6.85,0,0,1-2,.29,5.55,5.55,0,0,1-4.34-1.74,7.17,7.17,0,0,1-1.57-5V27.4a7.26,7.26,0,0,1,1.59-5,5.53,5.53,0,0,1,4.33-1.77,6.39,6.39,0,0,1,2.39.43A4.87,4.87,0,0,1,157,22.2a5.19,5.19,0,0,1,1,1.61,4.87,4.87,0,0,1,.37,1.86v0.11h-2.18A3.2,3.2,0,0,0,156,24.6a3.37,3.37,0,0,0-.63-1,2.93,2.93,0,0,0-1.07-.74,3.71,3.71,0,0,0-1.46-.28,3.28,3.28,0,0,0-2.69,1.23A5.67,5.67,0,0,0,149.16,27.42Z" transform="translate(-109.96 0)"/><g class="cls-5"><rect class="cls-3" x="33.13" y="62.58" width="33.6" height="2.15"/><rect class="cls-3" x="33.13" y="68.45" width="33.6" height="2.15"/><rect class="cls-3" x="33.13" y="74.23" width="33.6" height="2.15"/><rect class="cls-3" x="33.13" y="80.02" width="33.6" height="2.15"/><rect class="cls-3" x="33.13" y="85.8" width="33.6" height="2.15"/><rect class="cls-3" x="33.13" y="91.59" width="33.6" height="2.15"/></g></g></svg>