<svg id="FILES" xmlns="http://www.w3.org/2000/svg" viewBox="0 0 89.96 113.29"><defs><style>.cls-1{fill:#d9dee2;}.cls-2{fill:#f0f2f4;}.cls-3{fill:#ee3e24;}.cls-4{fill:#f1f2f2;}</style></defs><title>Icons_ficheiros_PDF</title><g id="PDF"><rect class="cls-1" x="5.42" width="84.28" height="113.29"/><rect class="cls-2" x="9.86" width="80.11" height="113.29"/><rect class="cls-3" x="11.87" y="0.24" width="33.1" height="56.85" transform="translate(57.09 0.24) rotate(90)"/><path class="cls-3" d="M44,82c1-2,2.2-4.29,3.13-6.58h0l0.37-.9c-1.22-4.66-2-8.39-1.3-10.81h0a1.67,1.67,0,0,1,1.69-1h0.56C49.48,62.65,50,64,50,64.54h0a8.5,8.5,0,0,1-.31,2.37h0a5.83,5.83,0,0,0-.36-2.41h0a2.84,2.84,0,0,0-1.24-1.64h0a1.19,1.19,0,0,0-.44.9h0a13,13,0,0,0-.17,2.08h0a23.23,23.23,0,0,0,1,6h0c0.12-.35.22-0.68,0.31-1h0c0.13-.49,1-3.73,1-3.73h0s-0.21,4.32-.5,5.63h0c-0.06.28-.13,0.55-0.2,0.83h0A19,19,0,0,0,53.77,81h0a14.79,14.79,0,0,0,2.74,1.88h0a37.26,37.26,0,0,1,5.56-.42h0c2.11,0,3.65.34,4.28,1h0a1.63,1.63,0,0,1,.47,1.07h0a3.21,3.21,0,0,1-.09.62h0c0-.11,0-0.67-1.67-1.21h0a19.66,19.66,0,0,0-6.81-.09h0c3.46,1.69,6.83,2.53,7.89,2h0a2.24,2.24,0,0,0,.58-0.56h0a6,6,0,0,1-.32,1.07h0a1.69,1.69,0,0,1-.83.57h0c-1.69.45-6.07-.59-9.9-2.78h0a80.78,80.78,0,0,0-12.73,3h0c-3.7,6.49-6.48,9.46-8.74,8.33h0l-0.83-.42A1,1,0,0,1,33,94h0c0.26-1.29,1.88-3.24,5.13-5.18h0c0.35-.21,1.91-1,1.91-1h0s-1.15,1.12-1.42,1.34h0c-2.59,2.13-4.51,4.8-4.46,5.84h0v0.09c2.2-.31,5.51-4.8,9.75-13.12m1.35,0.69c-0.71,1.34-1.4,2.58-2,3.72h0a54.23,54.23,0,0,1,11-3.11h0c-0.49-.34-1-0.69-1.41-1.07h0a18.84,18.84,0,0,1-4.63-6h0a51.67,51.67,0,0,1-2.91,6.49"/><path class="cls-4" d="M11.14,20.92h5.55a4.71,4.71,0,0,1,3.49,1.31,4.6,4.6,0,0,1,1.31,3.4A4.56,4.56,0,0,1,20.18,29a4.76,4.76,0,0,1-3.5,1.29H13.36v5.38H11.14V20.92Zm2.22,1.89v5.63h2.08a9.08,9.08,0,0,0,1.6-.12,3.45,3.45,0,0,0,1.17-.43A1.85,1.85,0,0,0,19,27a3.51,3.51,0,0,0,.24-1.4,2.82,2.82,0,0,0-.73-2.08,2.78,2.78,0,0,0-2.06-.74H13.36Z"/><path class="cls-4" d="M23.75,20.92H28.7a8.16,8.16,0,0,1,2.51.36,5.39,5.39,0,0,1,1.86,1,5.23,5.23,0,0,1,1.24,1.56,7.49,7.49,0,0,1,.71,2,12.31,12.31,0,0,1,.22,2.43,12.7,12.7,0,0,1-.21,2.4,7.49,7.49,0,0,1-.7,2,5,5,0,0,1-3.1,2.6,8.17,8.17,0,0,1-2.53.36H23.75V20.92ZM26,22.83V33.78H28.5a4,4,0,0,0,3.33-1.35,6.45,6.45,0,0,0,1.09-4.1,9.67,9.67,0,0,0-.24-2.26,5,5,0,0,0-.75-1.72,3.26,3.26,0,0,0-1.37-1.12,5,5,0,0,0-2.06-.38H26Z"/><path class="cls-4" d="M40.08,35.69H37.85V20.92h9v1.93H40.08v4.73h6.16v1.9H40.08v6.21Z"/></g></svg>