<svg id="FILES" xmlns="http://www.w3.org/2000/svg" viewBox="0 0 89.96 113.29"><defs><style>.cls-1{fill:#d9dee2;}.cls-2{fill:#f0f2f4;}.cls-3{fill:#008643;}.cls-4{opacity:0.54;}.cls-5{fill:#f1f2f2;}</style></defs><title>Icons_ficheiros_XLS</title><g id="XLS"><rect class="cls-1" x="5.42" width="84.28" height="113.29"/><rect class="cls-2" x="9.86" width="80.11" height="113.29"/><rect class="cls-3" x="231.8" y="0.24" width="33.1" height="56.85" transform="translate(57.09 -219.69) rotate(90)"/><g class="cls-4"><rect class="cls-3" x="33.45" y="62.58" width="8.07" height="2.15"/><rect class="cls-3" x="33.45" y="68.45" width="8.07" height="2.15"/><rect class="cls-3" x="33.45" y="74.23" width="8.07" height="2.15"/><rect class="cls-3" x="33.45" y="80.02" width="8.07" height="2.15"/><rect class="cls-3" x="33.45" y="85.8" width="8.07" height="2.15"/><rect class="cls-3" x="33.45" y="91.59" width="8.07" height="2.15"/></g><g class="cls-4"><rect class="cls-3" x="58.74" y="62.58" width="8.07" height="2.15"/><rect class="cls-3" x="58.74" y="68.45" width="8.07" height="2.15"/><rect class="cls-3" x="58.74" y="74.23" width="8.07" height="2.15"/><rect class="cls-3" x="58.74" y="80.02" width="8.07" height="2.15"/><rect class="cls-3" x="58.74" y="85.8" width="8.07" height="2.15"/><rect class="cls-3" x="58.74" y="91.59" width="8.07" height="2.15"/></g><g class="cls-4"><rect class="cls-3" x="45.87" y="62.58" width="8.07" height="2.15"/><rect class="cls-3" x="45.87" y="68.45" width="8.07" height="2.15"/><rect class="cls-3" x="45.87" y="74.23" width="8.07" height="2.15"/><rect class="cls-3" x="45.87" y="80.02" width="8.07" height="2.15"/><rect class="cls-3" x="45.87" y="85.8" width="8.07" height="2.15"/><rect class="cls-3" x="45.87" y="91.59" width="8.07" height="2.15"/></g><path class="cls-5" d="M242.76,20.92l-4.84,7.45,4.74,7.33H240l-3.51-5.64h-0.11l-3.54,5.64H230.4l4.75-7.45-4.69-7.33h2.65l3.51,5.68h0.12l3.47-5.68h2.54Z" transform="translate(-219.93 0)"/><path class="cls-5" d="M253.38,33.73v2h-8.85V20.92h2.23V33.73h6.62Z" transform="translate(-219.93 0)"/><path class="cls-5" d="M254.28,31.63h2.2a2.5,2.5,0,0,0,1,1.78,3.87,3.87,0,0,0,2.45.7,3.74,3.74,0,0,0,2.33-.65,2.11,2.11,0,0,0,.86-1.77,1.79,1.79,0,0,0-.57-1.39,4.14,4.14,0,0,0-1.8-.82l-2.49-.63a6.54,6.54,0,0,1-1.34-.49,5.07,5.07,0,0,1-1.12-.76,3.13,3.13,0,0,1-.8-1.15,4,4,0,0,1-.29-1.54,3.85,3.85,0,0,1,.74-2.35,4.46,4.46,0,0,1,1.92-1.49,7.15,7.15,0,0,1,5.15,0,4.45,4.45,0,0,1,1.91,1.46,3.87,3.87,0,0,1,.77,2.34H263a2.47,2.47,0,0,0-.89-1.72,3.33,3.33,0,0,0-2.21-.67,3.52,3.52,0,0,0-2.16.61,2,2,0,0,0-.82,1.68q0,1.56,2.07,2.06l2.47,0.63a9.39,9.39,0,0,1,1.27.4,5.71,5.71,0,0,1,1.07.57,3.57,3.57,0,0,1,.83.77,3.39,3.39,0,0,1,.52,1,4.18,4.18,0,0,1,.19,1.32,3.91,3.91,0,0,1-1.56,3.31A6.55,6.55,0,0,1,259.73,36a7.75,7.75,0,0,1-2.1-.27,5,5,0,0,1-1.55-.7,4.3,4.3,0,0,1-1-1,4,4,0,0,1-.59-1.17A4.78,4.78,0,0,1,254.28,31.63Z" transform="translate(-219.93 0)"/></g></svg>