<?xml version="1.0" encoding="utf-8"?>
<svg version="1.1" xmlns="http://www.w3.org/2000/svg" xmlns:xlink="http://www.w3.org/1999/xlink" x="0px" y="0px" viewBox="0 0 14 14" xml:space="preserve">
	<path d="M8.8,8.8c1.6-1.6,1.6-4.1,0-5.6s-4.1-1.6-5.6,0s-1.6,4.1,0,5.6S7.2,10.3,8.8,8.8z M9.4,10.8c-2.3,1.7-5.6,1.4-7.7-0.6
		c-2.3-2.3-2.3-6.1,0-8.4s6.1-2.3,8.4,0c2.1,2.1,2.3,5.4,0.6,7.7c0,0,0,0,0.1,0.1l2.8,2.8c0.4,0.4,0.4,1,0,1.4c-0.4,0.4-1,0.4-1.4,0
		L9.4,10.8C9.5,10.9,9.4,10.9,9.4,10.8z" fill="#ffffff"/>
</svg>
