<?xml version="1.0" encoding="utf-8"?>
<svg version="1.1" xmlns="http://www.w3.org/2000/svg" xmlns:xlink="http://www.w3.org/1999/xlink" x="0px" y="0px"
	 viewBox="0 0 90 79" xml:space="preserve">
<path d="M0,51.3C0,22.5,26.6,4.9,30.7,2.7c3-1.6,5.8-2.7,7.7-2.7c1.7,0,2.7,0.8,2.7,2.2c0,1.4-1.4,3-2.7,4.1
	c-3.8,2.7-14.5,17-14.5,30.5c0,3.6,1.9,6.8,4.1,7.9c2.5,1.4,14,3.8,14,18.4C42,71.6,35.1,79,25.5,79C12.9,79,0,69.4,0,51.3z"/>
<path d="M48,51.3C48,22.5,74.6,4.9,78.7,2.7c3-1.6,5.8-2.7,7.7-2.7c1.7,0,2.7,0.8,2.7,2.2c0,1.4-1.4,3-2.7,4.1
	c-3.8,2.7-14.5,17-14.5,30.5c0,3.6,1.9,6.8,4.1,7.9c2.5,1.4,14,3.8,14,18.4C90,71.6,83.1,79,73.5,79C60.9,79,48,69.4,48,51.3z"/>
</svg>
