<?xml version="1.0" encoding="utf-8"?>
<svg version="1.1" xmlns="http://www.w3.org/2000/svg" xmlns:xlink="http://www.w3.org/1999/xlink" x="0px" y="0px"
	 viewBox="-227.1 -10.1 100.3 100.3" xml:space="preserve">
<path d="M-155.7,22.5l-30.8,30.8l-11.7-11.7c-0.8-0.8-2-0.8-2.8,0c-0.8,0.8-0.8,2,0,2.8l14.5,14.5l33.6-33.6c0.8-0.8,0.8-2,0-2.8
	C-153.7,21.7-155,21.7-155.7,22.5z M-177-10.1c-27.6,0-50.1,22.5-50.1,50.1c0,27.6,22.5,50.1,50.1,50.1h0
	c27.6,0,50.1-22.5,50.1-50.1C-126.8,12.4-149.3-10.1-177-10.1z M-177,86.1L-177,86.1c-25.4,0-46.1-20.7-46.1-46.1
	c0-25.4,20.7-46.1,46.1-46.1s46.1,20.7,46.1,46.1C-130.8,65.4-151.5,86.1-177,86.1z" fill="#41939d"/>
</svg>