<svg xmlns="http://www.w3.org/2000/svg" viewBox="0 0 333.19 539.83"><defs><style>.cls-1{fill:#bb2127;}.cls-2{fill:#fff;}</style></defs><title>StreetMuzik_logo</title><g id="Waves"><g id="Waves-2" data-name="Waves"><g id="Down"><path class="cls-1" d="M115.65,429.25H118a2.25,2.25,0,0,1,2.25,2.25v38.95a2.25,2.25,0,0,1-2.25,2.25h-2.17a2.42,2.42,0,0,1-2.42-2.42V431.49a2.25,2.25,0,0,1,2.25-2.25Z"/><path class="cls-1" d="M107.7,429.25H110a2.25,2.25,0,0,1,2.25,2.25V463.6a2.25,2.25,0,0,1-2.25,2.25h-2.17a2.42,2.42,0,0,1-2.42-2.42V431.49a2.25,2.25,0,0,1,2.25-2.25Z"/><path class="cls-1" d="M123.6,429.25h2.35a2.25,2.25,0,0,1,2.25,2.25v47a2.25,2.25,0,0,1-2.25,2.25h-2.17a2.42,2.42,0,0,1-2.42-2.42V431.49A2.25,2.25,0,0,1,123.6,429.25Z"/><path class="cls-1" d="M91.8,429.25h2.35a2.25,2.25,0,0,1,2.25,2.25v48.82a2.25,2.25,0,0,1-2.25,2.25H92a2.42,2.42,0,0,1-2.42-2.42V431.49a2.25,2.25,0,0,1,2.25-2.25Z"/><path class="cls-1" d="M83.85,429.25h2.35a2.25,2.25,0,0,1,2.25,2.25v79.84a2.25,2.25,0,0,1-2.25,2.25H84a2.42,2.42,0,0,1-2.42-2.42V431.49A2.25,2.25,0,0,1,83.85,429.25Z"/><path class="cls-1" d="M99.75,429.25h2.35a2.25,2.25,0,0,1,2.25,2.25v40.43a2.25,2.25,0,0,1-2.25,2.25H99.92a2.42,2.42,0,0,1-2.42-2.42V431.49a2.25,2.25,0,0,1,2.25-2.25Z"/><path class="cls-1" d="M67.95,429.25h2.35a2.25,2.25,0,0,1,2.25,2.25v85.36a2.25,2.25,0,0,1-2.25,2.25H68.12a2.42,2.42,0,0,1-2.42-2.42V431.49a2.25,2.25,0,0,1,2.25-2.25Z"/><path class="cls-1" d="M60,429.25h2.35a2.25,2.25,0,0,1,2.25,2.25v71.94a2.25,2.25,0,0,1-2.25,2.25H60.17a2.42,2.42,0,0,1-2.42-2.42V431.49A2.25,2.25,0,0,1,60,429.25Z"/><path class="cls-1" d="M75.9,429.25h2.35a2.25,2.25,0,0,1,2.25,2.25v59.68a2.25,2.25,0,0,1-2.25,2.25H76.07A2.42,2.42,0,0,1,73.65,491V431.49a2.25,2.25,0,0,1,2.25-2.25Z"/><path class="cls-1" d="M44.1,429.25h2.35a2.25,2.25,0,0,1,2.25,2.25v49.64a2.25,2.25,0,0,1-2.25,2.25H44.27A2.42,2.42,0,0,1,41.85,481V431.49a2.25,2.25,0,0,1,2.25-2.25Z"/><path class="cls-1" d="M36.15,429.25h2.35a2.25,2.25,0,0,1,2.25,2.25V478a2.25,2.25,0,0,1-2.25,2.25H36.32a2.42,2.42,0,0,1-2.42-2.42V431.49a2.25,2.25,0,0,1,2.25-2.25Z"/><path class="cls-1" d="M52,429.25h2.35a2.25,2.25,0,0,1,2.25,2.25v59.68a2.25,2.25,0,0,1-2.25,2.25H52.22A2.42,2.42,0,0,1,49.8,491V431.49A2.25,2.25,0,0,1,52,429.25Z"/><path class="cls-1" d="M20.24,429.25h2.35a2.25,2.25,0,0,1,2.25,2.25v22.58a2.25,2.25,0,0,1-2.25,2.25H20.42A2.42,2.42,0,0,1,18,453.89v-22.4a2.25,2.25,0,0,1,2.25-2.25Z"/><path class="cls-1" d="M12.29,429.25h2.35a2.25,2.25,0,0,1,2.25,2.25V447.4a2.25,2.25,0,0,1-2.25,2.25H12.47A2.42,2.42,0,0,1,10,447.22V431.49A2.25,2.25,0,0,1,12.29,429.25Z"/><path class="cls-1" d="M28.19,429.25h2.35a2.25,2.25,0,0,1,2.25,2.25v30.72a2.25,2.25,0,0,1-2.25,2.25H28.37A2.42,2.42,0,0,1,25.95,462V431.49a2.25,2.25,0,0,1,2.25-2.25Z"/><path class="cls-1" d="M306.45,429.12h2.35a2.25,2.25,0,0,1,2.25,2.25v86.8a2.25,2.25,0,0,1-2.25,2.25h-2.17a2.42,2.42,0,0,1-2.42-2.42V431.37a2.25,2.25,0,0,1,2.25-2.25Z"/><path class="cls-1" d="M298.5,429.12h2.35a2.25,2.25,0,0,1,2.25,2.25v51.25a2.25,2.25,0,0,1-2.25,2.25h-2.17a2.42,2.42,0,0,1-2.42-2.42V431.37A2.25,2.25,0,0,1,298.5,429.12Z"/><path class="cls-1" d="M314.4,429.12h2.35a2.25,2.25,0,0,1,2.25,2.25V531a2.25,2.25,0,0,1-2.25,2.25h-2.17a2.42,2.42,0,0,1-2.42-2.42V431.37A2.25,2.25,0,0,1,314.4,429.12Z"/><path class="cls-1" d="M282.6,429.12h2.35a2.25,2.25,0,0,1,2.25,2.25v51.25a2.25,2.25,0,0,1-2.25,2.25h-2.17a2.42,2.42,0,0,1-2.42-2.42V431.37a2.25,2.25,0,0,1,2.25-2.25Z"/><path class="cls-1" d="M274.65,429.12H277a2.25,2.25,0,0,1,2.25,2.25v59.81a2.25,2.25,0,0,1-2.25,2.25h-2.17A2.42,2.42,0,0,1,272.4,491V431.37A2.25,2.25,0,0,1,274.65,429.12Z"/><path class="cls-1" d="M290.55,429.12h2.35a2.25,2.25,0,0,1,2.25,2.25v40.5a2.25,2.25,0,0,1-2.25,2.25h-2.17a2.42,2.42,0,0,1-2.42-2.42V431.37a2.25,2.25,0,0,1,2.25-2.25Z"/><path class="cls-1" d="M322.35,429.12h2.35a2.25,2.25,0,0,1,2.25,2.25v47.57a2.25,2.25,0,0,1-2.25,2.25h-2.17a2.42,2.42,0,0,1-2.42-2.42v-47.4A2.25,2.25,0,0,1,322.35,429.12Z"/><path class="cls-1" d="M258.75,429.12h2.35a2.25,2.25,0,0,1,2.25,2.25v55a2.25,2.25,0,0,1-2.25,2.25h-2.17a2.42,2.42,0,0,1-2.42-2.42V431.37a2.25,2.25,0,0,1,2.25-2.25Z"/><path class="cls-1" d="M250.8,429.12h2.35a2.25,2.25,0,0,1,2.25,2.25v40.5a2.25,2.25,0,0,1-2.25,2.25H251a2.42,2.42,0,0,1-2.42-2.42V431.37a2.25,2.25,0,0,1,2.25-2.25Z"/><path class="cls-1" d="M266.7,429.12H269a2.25,2.25,0,0,1,2.25,2.25v76a2.25,2.25,0,0,1-2.25,2.25h-2.17a2.42,2.42,0,0,1-2.42-2.42V431.37A2.25,2.25,0,0,1,266.7,429.12Z"/><path class="cls-1" d="M234.9,429.12h2.35a2.25,2.25,0,0,1,2.25,2.25V520a2.25,2.25,0,0,1-2.25,2.25h-2.17a2.42,2.42,0,0,1-2.42-2.42V431.37a2.25,2.25,0,0,1,2.25-2.25Z"/><path class="cls-1" d="M226.95,429.12h2.35a2.25,2.25,0,0,1,2.25,2.25v97.25a2.25,2.25,0,0,1-2.25,2.25h-2.17a2.42,2.42,0,0,1-2.42-2.42V431.37a2.25,2.25,0,0,1,2.25-2.25Z"/><path class="cls-1" d="M242.85,429.12h2.35a2.25,2.25,0,0,1,2.25,2.25v74.29a2.25,2.25,0,0,1-2.25,2.25H243a2.42,2.42,0,0,1-2.42-2.42V431.37A2.25,2.25,0,0,1,242.85,429.12Z"/><path class="cls-1" d="M211,429.12h2.35a2.25,2.25,0,0,1,2.25,2.25v82.35a2.25,2.25,0,0,1-2.25,2.25h-2.17a2.42,2.42,0,0,1-2.42-2.42V431.37a2.25,2.25,0,0,1,2.25-2.25Z"/><path class="cls-1" d="M203.1,429.12h2.35a2.25,2.25,0,0,1,2.25,2.25V502.2a2.25,2.25,0,0,1-2.25,2.25h-2.17a2.42,2.42,0,0,1-2.42-2.42V431.37a2.25,2.25,0,0,1,2.25-2.25Z"/><path class="cls-1" d="M219,429.12h2.35a2.25,2.25,0,0,1,2.25,2.25V531.92a2.25,2.25,0,0,1-2.25,2.25h-2.17a2.42,2.42,0,0,1-2.42-2.42V431.37a2.25,2.25,0,0,1,2.25-2.25Z"/><path class="cls-1" d="M187.2,429.12h2.35a2.25,2.25,0,0,1,2.25,2.25v55a2.25,2.25,0,0,1-2.25,2.25h-2.17a2.42,2.42,0,0,1-2.42-2.42V431.37A2.25,2.25,0,0,1,187.2,429.12Z"/><path class="cls-1" d="M179.25,429.12h2.35a2.25,2.25,0,0,1,2.25,2.25v76a2.25,2.25,0,0,1-2.25,2.25h-2.17a2.42,2.42,0,0,1-2.42-2.42V431.37a2.25,2.25,0,0,1,2.25-2.25Z"/><path class="cls-1" d="M195.15,429.12h2.35a2.25,2.25,0,0,1,2.25,2.25v59.81a2.25,2.25,0,0,1-2.25,2.25h-2.17A2.42,2.42,0,0,1,192.9,491V431.37a2.25,2.25,0,0,1,2.25-2.25Z"/><path class="cls-1" d="M163.35,429.12h2.35a2.25,2.25,0,0,1,2.25,2.25v85.48a2.25,2.25,0,0,1-2.25,2.25h-2.17a2.42,2.42,0,0,1-2.42-2.42v-85.3a2.25,2.25,0,0,1,2.25-2.25Z"/><path class="cls-1" d="M155.4,429.12h2.35a2.25,2.25,0,0,1,2.25,2.25V537.58a2.25,2.25,0,0,1-2.25,2.25h-2.17a2.42,2.42,0,0,1-2.42-2.42v-106a2.25,2.25,0,0,1,2.25-2.25Z"/><path class="cls-1" d="M171.3,429.12h2.35a2.25,2.25,0,0,1,2.25,2.25v59.81a2.25,2.25,0,0,1-2.25,2.25h-2.17a2.42,2.42,0,0,1-2.42-2.42V431.37a2.25,2.25,0,0,1,2.25-2.25Z"/><path class="cls-1" d="M139.5,429.12h2.35a2.25,2.25,0,0,1,2.25,2.25v82.35a2.25,2.25,0,0,1-2.25,2.25h-2.17a2.42,2.42,0,0,1-2.42-2.42V431.37A2.25,2.25,0,0,1,139.5,429.12Z"/><path class="cls-1" d="M131.55,429.12h2.35a2.25,2.25,0,0,1,2.25,2.25v38.41a2.25,2.25,0,0,1-2.25,2.25h-2.17a2.42,2.42,0,0,1-2.42-2.42V431.37a2.25,2.25,0,0,1,2.25-2.25Z"/><path class="cls-1" d="M147.45,429.12h2.35a2.25,2.25,0,0,1,2.25,2.25V531.92a2.25,2.25,0,0,1-2.25,2.25h-2.17a2.42,2.42,0,0,1-2.42-2.42V431.37a2.25,2.25,0,0,1,2.25-2.25Z"/></g><g id="Up"><path class="cls-1" d="M113.8,82h2.37a2.25,2.25,0,0,1,2.25,2.25v29.69a2.25,2.25,0,0,1-2.25,2.25H114a2.42,2.42,0,0,1-2.42-2.42V84.25A2.25,2.25,0,0,1,113.8,82Z"/><path class="cls-1" d="M105.83,71.5h2.37a2.25,2.25,0,0,1,2.25,2.25v40.19a2.25,2.25,0,0,1-2.25,2.25H106a2.42,2.42,0,0,1-2.42-2.42v-40a2.25,2.25,0,0,1,2.25-2.25Z"/><path class="cls-1" d="M121.78,55.75h2.37A2.25,2.25,0,0,1,126.39,58v55.94a2.25,2.25,0,0,1-2.25,2.25H122a2.42,2.42,0,0,1-2.42-2.42V58a2.25,2.25,0,0,1,2.25-2.25Z"/><path class="cls-1" d="M89.88,69.71h2.37A2.25,2.25,0,0,1,94.49,72v42a2.25,2.25,0,0,1-2.25,2.25H90.05a2.42,2.42,0,0,1-2.42-2.42V72A2.25,2.25,0,0,1,89.88,69.71Z"/><path class="cls-1" d="M81.9,76.5h2.37a2.25,2.25,0,0,1,2.25,2.25v35.19a2.25,2.25,0,0,1-2.25,2.25H82.08a2.42,2.42,0,0,1-2.42-2.42v-35A2.25,2.25,0,0,1,81.9,76.5Z"/><path class="cls-1" d="M97.85,33.25h2.37a2.25,2.25,0,0,1,2.25,2.25v78.44a2.25,2.25,0,0,1-2.25,2.25H98a2.42,2.42,0,0,1-2.42-2.42V35.5A2.25,2.25,0,0,1,97.85,33.25Z"/><path class="cls-1" d="M66,23.25h2.37a2.25,2.25,0,0,1,2.25,2.25v88.44a2.25,2.25,0,0,1-2.25,2.25H66.13a2.42,2.42,0,0,1-2.42-2.42V25.5A2.25,2.25,0,0,1,66,23.25Z"/><path class="cls-1" d="M58,21h2.37a2.25,2.25,0,0,1,2.25,2.25v90.69a2.25,2.25,0,0,1-2.25,2.25H58.16a2.42,2.42,0,0,1-2.42-2.42V23.25A2.25,2.25,0,0,1,58,21Z"/><path class="cls-1" d="M73.93,50.75H76.3A2.25,2.25,0,0,1,78.54,53v60.94a2.25,2.25,0,0,1-2.25,2.25H74.11a2.42,2.42,0,0,1-2.42-2.42V53a2.25,2.25,0,0,1,2.25-2.25Z"/><path class="cls-1" d="M42,19.75H44.4A2.25,2.25,0,0,1,46.64,22v91.94a2.25,2.25,0,0,1-2.25,2.25H42.21a2.42,2.42,0,0,1-2.42-2.42V22A2.25,2.25,0,0,1,42,19.75Z"/><path class="cls-1" d="M34.06,13h2.37a2.25,2.25,0,0,1,2.25,2.25v98.69a2.25,2.25,0,0,1-2.25,2.25H34.23a2.42,2.42,0,0,1-2.42-2.42V15.25A2.25,2.25,0,0,1,34.06,13Z"/><path class="cls-1" d="M50,33.25h2.37a2.25,2.25,0,0,1,2.25,2.25v78.44a2.25,2.25,0,0,1-2.25,2.25H50.18a2.42,2.42,0,0,1-2.42-2.42V35.5A2.25,2.25,0,0,1,50,33.25Z"/><path class="cls-1" d="M18.11,58.25h2.37a2.25,2.25,0,0,1,2.25,2.25v53.44a2.25,2.25,0,0,1-2.25,2.25H18.28a2.42,2.42,0,0,1-2.42-2.42V60.5a2.25,2.25,0,0,1,2.25-2.25Z"/><path class="cls-1" d="M10.13,98.5H12.5a2.25,2.25,0,0,1,2.25,2.25v13.19a2.25,2.25,0,0,1-2.25,2.25H10.31a2.42,2.42,0,0,1-2.42-2.42v-13A2.25,2.25,0,0,1,10.13,98.5Z"/><path class="cls-1" d="M26.08,34.75h2.37A2.25,2.25,0,0,1,30.69,37v76.94a2.25,2.25,0,0,1-2.25,2.25H26.26a2.42,2.42,0,0,1-2.42-2.42V37a2.25,2.25,0,0,1,2.25-2.25Z"/><path class="cls-1" d="M305.19,34.75h2.37A2.25,2.25,0,0,1,309.81,37v76.81a2.25,2.25,0,0,1-2.25,2.25h-2.19a2.42,2.42,0,0,1-2.42-2.42V37a2.25,2.25,0,0,1,2.25-2.25Z"/><path class="cls-1" d="M297.22,12.87h2.37a2.25,2.25,0,0,1,2.25,2.25v98.69a2.25,2.25,0,0,1-2.25,2.25H297.4a2.42,2.42,0,0,1-2.42-2.42V15.12a2.25,2.25,0,0,1,2.25-2.25Z"/><path class="cls-1" d="M313.17,64.46h2.37a2.25,2.25,0,0,1,2.25,2.25v47.1a2.25,2.25,0,0,1-2.25,2.25h-2.19a2.42,2.42,0,0,1-2.42-2.42V66.71A2.25,2.25,0,0,1,313.17,64.46Z"/><path class="cls-1" d="M281.27,68.59h2.37a2.25,2.25,0,0,1,2.25,2.25v43a2.25,2.25,0,0,1-2.25,2.25h-2.19a2.42,2.42,0,0,1-2.42-2.42V70.84A2.25,2.25,0,0,1,281.27,68.59Z"/><path class="cls-1" d="M273.29,34.75h2.37A2.25,2.25,0,0,1,277.91,37v76.81a2.25,2.25,0,0,1-2.25,2.25h-2.19a2.42,2.42,0,0,1-2.42-2.42V37a2.25,2.25,0,0,1,2.25-2.25Z"/><path class="cls-1" d="M289.24,42.3h2.37a2.25,2.25,0,0,1,2.25,2.25v69.26a2.25,2.25,0,0,1-2.25,2.25h-2.19a2.42,2.42,0,0,1-2.42-2.42V44.54a2.25,2.25,0,0,1,2.25-2.25Z"/><path class="cls-1" d="M321.14,92.95h2.37a2.25,2.25,0,0,1,2.25,2.25v18.62a2.25,2.25,0,0,1-2.25,2.25h-2.19a2.42,2.42,0,0,1-2.42-2.42V95.19a2.25,2.25,0,0,1,2.25-2.25Z"/><path class="cls-1" d="M257.35,0h2.37A2.25,2.25,0,0,1,262,2.25V113.81a2.25,2.25,0,0,1-2.25,2.25h-2.19a2.42,2.42,0,0,1-2.42-2.42V2.25A2.25,2.25,0,0,1,257.35,0Z"/><path class="cls-1" d="M249.37,23.25h2.37A2.25,2.25,0,0,1,254,25.5v88.31a2.25,2.25,0,0,1-2.25,2.25h-2.19a2.42,2.42,0,0,1-2.42-2.42V25.5a2.25,2.25,0,0,1,2.25-2.25Z"/><path class="cls-1" d="M265.32,55.75h2.37A2.25,2.25,0,0,1,269.93,58v55.81a2.25,2.25,0,0,1-2.25,2.25H265.5a2.42,2.42,0,0,1-2.42-2.42V58a2.25,2.25,0,0,1,2.25-2.25Z"/><path class="cls-1" d="M233.42,76.5h2.37A2.25,2.25,0,0,1,238,78.75v35.06a2.25,2.25,0,0,1-2.25,2.25H233.6a2.42,2.42,0,0,1-2.42-2.42V78.75a2.25,2.25,0,0,1,2.25-2.25Z"/><path class="cls-1" d="M225.45,10.33h2.37a2.25,2.25,0,0,1,2.25,2.25V113.81a2.25,2.25,0,0,1-2.25,2.25h-2.19a2.42,2.42,0,0,1-2.42-2.42V12.58a2.25,2.25,0,0,1,2.25-2.25Z"/><path class="cls-1" d="M241.4,65.75h2.37A2.25,2.25,0,0,1,246,68v45.81a2.25,2.25,0,0,1-2.25,2.25h-2.19a2.42,2.42,0,0,1-2.42-2.42V68a2.25,2.25,0,0,1,2.25-2.25Z"/><path class="cls-1" d="M209.5,42.3h2.37a2.25,2.25,0,0,1,2.25,2.25v69.26a2.25,2.25,0,0,1-2.25,2.25h-2.19a2.42,2.42,0,0,1-2.42-2.42V44.54a2.25,2.25,0,0,1,2.25-2.25Z"/><path class="cls-1" d="M201.52,10.83h2.37a2.25,2.25,0,0,1,2.25,2.25V113.81a2.25,2.25,0,0,1-2.25,2.25H201.7a2.42,2.42,0,0,1-2.42-2.42V13.08a2.25,2.25,0,0,1,2.25-2.25Z"/><path class="cls-1" d="M217.47,48.25h2.37a2.25,2.25,0,0,1,2.25,2.25v63.31a2.25,2.25,0,0,1-2.25,2.25h-2.19a2.42,2.42,0,0,1-2.42-2.42V50.5a2.25,2.25,0,0,1,2.25-2.25Z"/><path class="cls-1" d="M185.57,34.75h2.37A2.25,2.25,0,0,1,190.19,37v76.81a2.25,2.25,0,0,1-2.25,2.25h-2.19a2.42,2.42,0,0,1-2.42-2.42V37a2.25,2.25,0,0,1,2.25-2.25Z"/><path class="cls-1" d="M177.6,59.5H180a2.25,2.25,0,0,1,2.25,2.25v52.06a2.25,2.25,0,0,1-2.25,2.25h-2.19a2.42,2.42,0,0,1-2.42-2.42V61.75a2.25,2.25,0,0,1,2.25-2.25Z"/><path class="cls-1" d="M193.55,50.75h2.37A2.25,2.25,0,0,1,198.16,53v60.81a2.25,2.25,0,0,1-2.25,2.25h-2.19a2.42,2.42,0,0,1-2.42-2.42V53a2.25,2.25,0,0,1,2.25-2.25Z"/><path class="cls-1" d="M161.65,50.75H164A2.25,2.25,0,0,1,166.26,53v60.81a2.25,2.25,0,0,1-2.25,2.25h-2.19a2.42,2.42,0,0,1-2.42-2.42V53a2.25,2.25,0,0,1,2.25-2.25Z"/><path class="cls-1" d="M153.68,25.25H156a2.25,2.25,0,0,1,2.25,2.25v86.31a2.25,2.25,0,0,1-2.25,2.25h-2.19a2.42,2.42,0,0,1-2.42-2.42V27.5a2.25,2.25,0,0,1,2.25-2.25Z"/><path class="cls-1" d="M169.62,20.37H172a2.25,2.25,0,0,1,2.25,2.25v91.19a2.25,2.25,0,0,1-2.25,2.25H169.8a2.42,2.42,0,0,1-2.42-2.42v-91a2.25,2.25,0,0,1,2.25-2.25Z"/><path class="cls-1" d="M137.73,8.79h2.37A2.25,2.25,0,0,1,142.34,11V113.81a2.25,2.25,0,0,1-2.25,2.25H137.9a2.42,2.42,0,0,1-2.42-2.42V11A2.25,2.25,0,0,1,137.73,8.79Z"/><path class="cls-1" d="M129.75,34.75h2.37A2.25,2.25,0,0,1,134.36,37v76.81a2.25,2.25,0,0,1-2.25,2.25h-2.19a2.42,2.42,0,0,1-2.42-2.42V37A2.25,2.25,0,0,1,129.75,34.75Z"/><path class="cls-1" d="M145.7,5.5h2.37a2.25,2.25,0,0,1,2.25,2.25V113.81a2.25,2.25,0,0,1-2.25,2.25h-2.19a2.42,2.42,0,0,1-2.42-2.42V7.75A2.25,2.25,0,0,1,145.7,5.5Z"/></g></g><g id="Estrada"><path class="cls-1" d="M113.67,199.29H116a2.25,2.25,0,0,1,2.25,2.25v141.9a2.25,2.25,0,0,1-2.25,2.25h-2.18a2.42,2.42,0,0,1-2.42-2.42V201.54a2.25,2.25,0,0,1,2.25-2.25Z"/><path class="cls-1" d="M105.7,199.29h2.35a2.25,2.25,0,0,1,2.25,2.25v141.9a2.25,2.25,0,0,1-2.25,2.25h-2.18a2.42,2.42,0,0,1-2.42-2.42V201.54a2.25,2.25,0,0,1,2.25-2.25Z"/><path class="cls-1" d="M121.63,199.29H124a2.25,2.25,0,0,1,2.25,2.25v141.9a2.25,2.25,0,0,1-2.25,2.25H121.8a2.42,2.42,0,0,1-2.42-2.42V201.54a2.25,2.25,0,0,1,2.25-2.25Z"/><path class="cls-1" d="M89.78,199.29h2.35a2.25,2.25,0,0,1,2.25,2.25v141.9a2.25,2.25,0,0,1-2.25,2.25H90a2.42,2.42,0,0,1-2.42-2.42V201.54a2.25,2.25,0,0,1,2.25-2.25Z"/><path class="cls-1" d="M81.82,199.29h2.35a2.25,2.25,0,0,1,2.25,2.25v141.9a2.25,2.25,0,0,1-2.25,2.25H82a2.42,2.42,0,0,1-2.42-2.42V201.54a2.25,2.25,0,0,1,2.25-2.25Z"/><path class="cls-1" d="M97.74,199.29h2.35a2.25,2.25,0,0,1,2.25,2.25v141.9a2.25,2.25,0,0,1-2.25,2.25H97.92a2.42,2.42,0,0,1-2.42-2.42V201.54a2.25,2.25,0,0,1,2.25-2.25Z"/><path class="cls-1" d="M65.9,199.29h2.35a2.25,2.25,0,0,1,2.25,2.25v141.9a2.25,2.25,0,0,1-2.25,2.25H66.08a2.42,2.42,0,0,1-2.42-2.42V201.54a2.25,2.25,0,0,1,2.25-2.25Z"/><path class="cls-1" d="M57.95,199.29H60.3a2.25,2.25,0,0,1,2.25,2.25v141.9a2.25,2.25,0,0,1-2.25,2.25H58.12a2.42,2.42,0,0,1-2.42-2.42V201.54a2.25,2.25,0,0,1,2.25-2.25Z"/><path class="cls-1" d="M73.86,199.29h2.35a2.25,2.25,0,0,1,2.25,2.25v141.9a2.25,2.25,0,0,1-2.25,2.25H74a2.42,2.42,0,0,1-2.42-2.42V201.54a2.25,2.25,0,0,1,2.25-2.25Z"/><path class="cls-1" d="M42,199.29h2.35a2.25,2.25,0,0,1,2.25,2.25v141.9a2.25,2.25,0,0,1-2.25,2.25H42.2a2.42,2.42,0,0,1-2.42-2.42V201.54A2.25,2.25,0,0,1,42,199.29Z"/><path class="cls-1" d="M34.08,199.29h2.35a2.25,2.25,0,0,1,2.25,2.25v141.9a2.25,2.25,0,0,1-2.25,2.25H34.26a2.42,2.42,0,0,1-2.42-2.42V201.54a2.25,2.25,0,0,1,2.25-2.25Z"/><path class="cls-1" d="M50,199.29h2.35a2.25,2.25,0,0,1,2.25,2.25v141.9a2.25,2.25,0,0,1-2.25,2.25H50.16a2.42,2.42,0,0,1-2.42-2.42V201.54A2.25,2.25,0,0,1,50,199.29Z"/><path class="cls-1" d="M18.16,199.29h2.35a2.25,2.25,0,0,1,2.25,2.25v141.9a2.25,2.25,0,0,1-2.25,2.25H18.34a2.42,2.42,0,0,1-2.42-2.42V201.54a2.25,2.25,0,0,1,2.25-2.25Z"/><path class="cls-1" d="M10.2,199.29h2.35a2.25,2.25,0,0,1,2.25,2.25v141.9a2.25,2.25,0,0,1-2.25,2.25H10.37A2.42,2.42,0,0,1,8,343.26V201.54a2.25,2.25,0,0,1,2.25-2.25Z"/><path class="cls-1" d="M26.12,199.29h2.35a2.25,2.25,0,0,1,2.25,2.25v141.9a2.25,2.25,0,0,1-2.25,2.25H26.3a2.42,2.42,0,0,1-2.42-2.42V201.54A2.25,2.25,0,0,1,26.12,199.29Z"/><path class="cls-1" d="M304.71,199h2.35a2.25,2.25,0,0,1,2.25,2.25v141.9a2.25,2.25,0,0,1-2.25,2.25h-2.18a2.42,2.42,0,0,1-2.42-2.42V201.29a2.25,2.25,0,0,1,2.25-2.25Z"/><path class="cls-1" d="M296.76,199h2.35a2.25,2.25,0,0,1,2.25,2.25v141.9a2.25,2.25,0,0,1-2.25,2.25h-2.18a2.42,2.42,0,0,1-2.42-2.42V201.29a2.25,2.25,0,0,1,2.25-2.25Z"/><path class="cls-1" d="M312.67,199H315a2.25,2.25,0,0,1,2.25,2.25v141.9a2.25,2.25,0,0,1-2.25,2.25h-2.18a2.42,2.42,0,0,1-2.42-2.42V201.29a2.25,2.25,0,0,1,2.25-2.25Z"/><path class="cls-1" d="M280.84,199h2.35a2.25,2.25,0,0,1,2.25,2.25v141.9a2.25,2.25,0,0,1-2.25,2.25H281a2.42,2.42,0,0,1-2.42-2.42V201.29a2.25,2.25,0,0,1,2.25-2.25Z"/><path class="cls-1" d="M272.88,199h2.35a2.25,2.25,0,0,1,2.25,2.25v141.9a2.25,2.25,0,0,1-2.25,2.25h-2.18a2.42,2.42,0,0,1-2.42-2.42V201.29A2.25,2.25,0,0,1,272.88,199Z"/><path class="cls-1" d="M288.8,199h2.35a2.25,2.25,0,0,1,2.25,2.25v141.9a2.25,2.25,0,0,1-2.25,2.25H289a2.42,2.42,0,0,1-2.42-2.42V201.29A2.25,2.25,0,0,1,288.8,199Z"/><path class="cls-1" d="M320.63,199H323a2.25,2.25,0,0,1,2.25,2.25v141.9a2.25,2.25,0,0,1-2.25,2.25h-2.18a2.42,2.42,0,0,1-2.42-2.42V201.29a2.25,2.25,0,0,1,2.25-2.25Z"/><path class="cls-1" d="M257,199h2.35a2.25,2.25,0,0,1,2.25,2.25v141.9a2.25,2.25,0,0,1-2.25,2.25h-2.18a2.42,2.42,0,0,1-2.42-2.42V201.29A2.25,2.25,0,0,1,257,199Z"/><path class="cls-1" d="M249,199h2.35a2.25,2.25,0,0,1,2.25,2.25v141.9a2.25,2.25,0,0,1-2.25,2.25h-2.18a2.42,2.42,0,0,1-2.42-2.42V201.29A2.25,2.25,0,0,1,249,199Z"/><path class="cls-1" d="M264.92,199h2.35a2.25,2.25,0,0,1,2.25,2.25v141.9a2.25,2.25,0,0,1-2.25,2.25H265.1a2.42,2.42,0,0,1-2.42-2.42V201.29a2.25,2.25,0,0,1,2.25-2.25Z"/><path class="cls-1" d="M233.08,199h2.35a2.25,2.25,0,0,1,2.25,2.25v141.9a2.25,2.25,0,0,1-2.25,2.25h-2.18a2.42,2.42,0,0,1-2.42-2.42V201.29a2.25,2.25,0,0,1,2.25-2.25Z"/><path class="cls-1" d="M225.12,199h2.35a2.25,2.25,0,0,1,2.25,2.25v141.9a2.25,2.25,0,0,1-2.25,2.25h-2.18a2.42,2.42,0,0,1-2.42-2.42V201.29A2.25,2.25,0,0,1,225.12,199Z"/><path class="cls-1" d="M241,199h2.35a2.25,2.25,0,0,1,2.25,2.25v141.9a2.25,2.25,0,0,1-2.25,2.25h-2.18a2.42,2.42,0,0,1-2.42-2.42V201.29A2.25,2.25,0,0,1,241,199Z"/><path class="cls-1" d="M209.19,199h2.35a2.25,2.25,0,0,1,2.25,2.25v141.9a2.25,2.25,0,0,1-2.25,2.25h-2.18a2.42,2.42,0,0,1-2.42-2.42V201.29A2.25,2.25,0,0,1,209.19,199Z"/><path class="cls-1" d="M201.23,199h2.35a2.25,2.25,0,0,1,2.25,2.25v141.9a2.25,2.25,0,0,1-2.25,2.25h-2.18A2.42,2.42,0,0,1,199,343V201.29A2.25,2.25,0,0,1,201.23,199Z"/><path class="cls-1" d="M217.15,199h2.35a2.25,2.25,0,0,1,2.25,2.25v141.9a2.25,2.25,0,0,1-2.25,2.25h-2.18a2.42,2.42,0,0,1-2.42-2.42V201.29a2.25,2.25,0,0,1,2.25-2.25Z"/><path class="cls-1" d="M185.31,199h2.35a2.25,2.25,0,0,1,2.25,2.25v141.9a2.25,2.25,0,0,1-2.25,2.25h-2.18a2.42,2.42,0,0,1-2.42-2.42V201.29a2.25,2.25,0,0,1,2.25-2.25Z"/><path class="cls-1" d="M177.35,199h2.35a2.25,2.25,0,0,1,2.25,2.25v141.9a2.25,2.25,0,0,1-2.25,2.25h-2.18a2.42,2.42,0,0,1-2.42-2.42V201.29A2.25,2.25,0,0,1,177.35,199Z"/><path class="cls-1" d="M193.27,199h2.35a2.25,2.25,0,0,1,2.25,2.25v141.9a2.25,2.25,0,0,1-2.25,2.25h-2.18A2.42,2.42,0,0,1,191,343V201.29a2.25,2.25,0,0,1,2.25-2.25Z"/><path class="cls-1" d="M161.43,199h2.35a2.25,2.25,0,0,1,2.25,2.25v141.9a2.25,2.25,0,0,1-2.25,2.25h-2.18a2.42,2.42,0,0,1-2.42-2.42V201.29a2.25,2.25,0,0,1,2.25-2.25Z"/><path class="cls-1" d="M153.47,199h2.35a2.25,2.25,0,0,1,2.25,2.25v141.9a2.25,2.25,0,0,1-2.25,2.25h-2.18a2.42,2.42,0,0,1-2.42-2.42V201.29a2.25,2.25,0,0,1,2.25-2.25Z"/><path class="cls-1" d="M169.39,199h2.35a2.25,2.25,0,0,1,2.25,2.25v141.9a2.25,2.25,0,0,1-2.25,2.25h-2.18a2.42,2.42,0,0,1-2.42-2.42V201.29a2.25,2.25,0,0,1,2.25-2.25Z"/><path class="cls-1" d="M137.55,199h2.35a2.25,2.25,0,0,1,2.25,2.25v141.9a2.25,2.25,0,0,1-2.25,2.25h-2.18A2.42,2.42,0,0,1,135.3,343V201.29a2.25,2.25,0,0,1,2.25-2.25Z"/><path class="cls-1" d="M129.59,199h2.35a2.25,2.25,0,0,1,2.25,2.25v141.9a2.25,2.25,0,0,1-2.25,2.25h-2.18a2.42,2.42,0,0,1-2.42-2.42V201.29a2.25,2.25,0,0,1,2.25-2.25Z"/><path class="cls-1" d="M145.51,199h2.35a2.25,2.25,0,0,1,2.25,2.25v141.9a2.25,2.25,0,0,1-2.25,2.25h-2.18a2.42,2.42,0,0,1-2.42-2.42V201.29A2.25,2.25,0,0,1,145.51,199Z"/><path id="_9" data-name="9" class="cls-1" d="M328.59,199.17h2.35a2.25,2.25,0,0,1,2.25,2.25V343.07a2.25,2.25,0,0,1-2.25,2.25h-2.18a2.42,2.42,0,0,1-2.42-2.42V201.41a2.25,2.25,0,0,1,2.25-2.25Z"/><path id="_9-2" data-name="9" class="cls-1" d="M2.25,199.42H4.6a2.25,2.25,0,0,1,2.25,2.25V343.31a2.25,2.25,0,0,1-2.25,2.25H2.42A2.42,2.42,0,0,1,0,343.14V201.66a2.25,2.25,0,0,1,2.25-2.25Z"/><rect class="cls-1" y="186.04" width="333.19" height="11.67"/><rect class="cls-1" y="347.02" width="333.19" height="11.67"/><rect y="266.4" width="66.64" height="11.67"/><rect x="133.28" y="266.4" width="66.64" height="11.67"/><rect x="266.55" y="266.4" width="66.64" height="11.67"/></g></g><g id="Marca"><g id="Street_Muzik" data-name="Street Muzik"><g id="Muzik"><path class="cls-2" d="M326.95,451.34V400.46l-28.51,40.69-28.91-40.79v51h-4.46V386.2l33.36,47.12,33-47.12v65.14Z" transform="translate(-255.02 -25.27)"/><path class="cls-2" d="M381.69,452a23.53,23.53,0,0,1-9.36-1.93,24.45,24.45,0,0,1-8-5.5,22.71,22.71,0,0,1-5.3-7.92,25.47,25.47,0,0,1-1.83-9.6V387h4.46v40.1a20.74,20.74,0,0,0,1.53,7.92,19.58,19.58,0,0,0,4.31,6.53,20.18,20.18,0,0,0,6.53,4.41,19.52,19.52,0,0,0,7.62,1.53,19.78,19.78,0,0,0,7.72-1.53,20.21,20.21,0,0,0,6.53-4.41,19.62,19.62,0,0,0,4.31-6.53,20.78,20.78,0,0,0,1.53-7.92V387h4.45v40.1a25.51,25.51,0,0,1-1.83,9.6,22.76,22.76,0,0,1-5.3,7.92,24.62,24.62,0,0,1-7.92,5.5A23.66,23.66,0,0,1,381.69,452Z" transform="translate(-255.02 -25.27)"/><path class="cls-2" d="M433.47,451.34l31.18-59.8H431.19V387h40.89L441,446.89h33.46v4.46Z" transform="translate(-255.02 -25.27)"/><path class="cls-2" d="M499.89,451.34V387h4.46v64.35Z" transform="translate(-255.02 -25.27)"/><path class="cls-2" d="M582,451.34H576L553,423.92l-20.79,28.51V387h4.46v51.58L574.14,387h5.64l-24.16,33.07Z" transform="translate(-255.02 -25.27)"/></g><g id="Street"><path class="cls-2" d="M308.08,183a13.91,13.91,0,0,1,2.52,8,14.54,14.54,0,0,1-1.78,7,17.42,17.42,0,0,1-5.15,5.79,27,27,0,0,1-16.14,5,29.33,29.33,0,0,1-8.71-1.29,25.14,25.14,0,0,1-7.42-3.66,16.43,16.43,0,0,1-6.83-10.2l4.26-2.38q.3,5.45,5.35,8.91a18.5,18.5,0,0,0,6,3,25.37,25.37,0,0,0,7.33,1,21.73,21.73,0,0,0,13.37-4.06q5.25-3.86,5.25-9.11a9.62,9.62,0,0,0-1.93-5.74,15.8,15.8,0,0,0-5.4-4.55Q295.56,179,287.15,178l-5-.79a26.62,26.62,0,0,1-7.38-2.18,19.75,19.75,0,0,1-7.62-6.29,14.34,14.34,0,0,1-2.77-8.46,13.68,13.68,0,0,1,1.83-6.88,18.37,18.37,0,0,1,5.2-5.69,25.17,25.17,0,0,1,7.42-3.66,29.33,29.33,0,0,1,8.71-1.29,27,27,0,0,1,16.14,5q5.74,4.36,6.73,10.1l-4.26,2.38a10.09,10.09,0,0,0-1.44-4.75,14.52,14.52,0,0,0-3.81-4.16,19.76,19.76,0,0,0-6.14-3,25,25,0,0,0-7.23-1,25.51,25.51,0,0,0-7.28,1,18.46,18.46,0,0,0-6.09,3,14.37,14.37,0,0,0-4,4.21,9.25,9.25,0,0,0-1.39,4.8,10.06,10.06,0,0,0,2.28,6.09,15.84,15.84,0,0,0,5.64,4.7,17.86,17.86,0,0,0,4.6,1.44q2.52.45,6.48.94l3.47.5a45.49,45.49,0,0,1,5.35,1.09,19.48,19.48,0,0,1,4.36,1.68A20.64,20.64,0,0,1,308.08,183Z" transform="translate(-255.02 -25.27)"/><path class="cls-2" d="M367.83,143.59v4.55H342.39v59.8h-4.55v-59.8H312.29v-4.55Z" transform="translate(-255.02 -25.27)"/><path class="cls-2" d="M411.79,207.94l-26.73-32.47H393a31.53,31.53,0,0,0,11.88-1.88,15.86,15.86,0,0,0,5.84-4.8,11.35,11.35,0,0,0,2.48-7.08,11.68,11.68,0,0,0-2.08-6.58,15.38,15.38,0,0,0-5.94-5.1,19.27,19.27,0,0,0-8.91-2h-18v59.9h-4.46V143.59h22.47a24.82,24.82,0,0,1,8.51,1.44,20.9,20.9,0,0,1,6.93,4.11,18.24,18.24,0,0,1,4.41,5.84,15.92,15.92,0,0,1-1.73,16.48,18.88,18.88,0,0,1-7.72,6.19,20.37,20.37,0,0,1-6,1.73,52.38,52.38,0,0,1-6.19.35l23.26,28.21Z" transform="translate(-255.02 -25.27)"/><path class="cls-2" d="M426.54,207.94V143.59h41.68v4.55H431v25.34h29V178H431v25.25h37.22v4.65Z" transform="translate(-255.02 -25.27)"/><path class="cls-2" d="M476.73,207.94V143.59h41.68v4.55H481.18v25.34h29V178h-29v25.25h37.22v4.65Z" transform="translate(-255.02 -25.27)"/><path class="cls-2" d="M580.78,143.59v4.55H555.33v59.8h-4.55v-59.8H525.24v-4.55Z" transform="translate(-255.02 -25.27)"/></g></g></g></svg>